{
  "accessors": [
    {
      "bufferView": 2,
      "componentType": 5126,
      "count": 20774,
      "max": [
        1.7107789516448975,
        10.237683296203613,
        12.729230880737305
      ],
      "min": [
        -2.8442230224609375,
        -43.566211700439453,
        2.6270689964294434
      ],
      "type": "VEC3"
    },
    {
      "bufferView": 2,
      "byteOffset": 249288,
      "componentType": 5126,
      "count": 20774,
      "max": [
        1,
        1,
        1
      ],
      "min": [
        -1,
        -1,
        -1
      ],
      "type": "VEC3"
    },
    {
      "bufferView": 3,
      "componentType": 5126,
      "count": 20774,
      "max": [
        1,
        1,
        1,
        1
      ],
      "min": [
        -1,
        -1,
        -1,
        -1
      ],
      "type": "VEC4"
    },
    {
      "bufferView": 1,
      "componentType": 5126,
      "count": 20774,
      "max": [
        0.99530500173568726,
        0.99612599611282349
      ],
      "min": [
        0.0032049999572336674,
        0.0037110000848770142
      ],
      "type": "VEC2"
    },
    {
      "bufferView": 0,
      "componentType": 5125,
      "count": 65604,
      "max": [
        20773
      ],
      "min": [
        0
      ],
      "type": "SCALAR"
    },
    {
      "bufferView": 2,
      "byteOffset": 498576,
      "componentType": 5126,
      "count": 50,
      "max": [
        1.0126709938049316,
        -2.1408069133758545,
        12.23507022857666
      ],
      "min": [
        -1.0763260126113892,
        -15.27885913848877,
        10.146071434020996
      ],
      "type": "VEC3"
    },
    {
      "bufferView": 2,
      "byteOffset": 499176,
      "componentType": 5126,
      "count": 50,
      "max": [
        0.11780437827110291,
        1,
        0.11780437827110291
      ],
      "min": [
        -0.11770575493574142,
        -1,
        -0.11770575493574142
      ],
      "type": "VEC3"
    },
    {
      "bufferView": 3,
      "byteOffset": 332384,
      "componentType": 5126,
      "count": 50,
      "max": [
        0.9999968409538269,
        0.11780399084091187,
        0.0028415690176188946,
        1
      ],
      "min": [
        -0.99999696016311646,
        -0.11770536005496979,
        0.0024451387580484152,
        1
      ],
      "type": "VEC4"
    },
    {
      "bufferView": 1,
      "byteOffset": 166192,
      "componentType": 5126,
      "count": 50,
      "max": [
        1.0010629892349243,
        1.000586986541748
      ],
      "min": [
        -0.00076800002716481686,
        0.00055599998449906707
      ],
      "type": "VEC2"
    },
    {
      "bufferView": 0,
      "byteOffset": 262416,
      "componentType": 5125,
      "count": 144,
      "max": [
        49
      ],
      "min": [
        0
      ],
      "type": "SCALAR"
    }
  ],
  "asset": {
    "extras": {
      "author": "Vrato3D (https://sketchfab.com/VratoSych)",
      "license": "CC-BY-4.0 (http://creativecommons.org/licenses/by/4.0/)",
      "source": "https://sketchfab.com/models/798ab94120064b8f8a9235367b773327",
      "title": "Original AWP | Dragon lore"
    },
    "generator": "Sketchfab-3.36.2",
    "version": "2.0"
  },
  "bufferViews": [
    {
      "buffer": 0,
      "byteLength": 262992,
      "byteOffset": 0,
      "name": "floatBufferViews",
      "target": 34963
    },
    {
      "buffer": 0,
      "byteLength": 166592,
      "byteOffset": 262992,
      "byteStride": 8,
      "name": "floatBufferViews",
      "target": 34962
    },
    {
      "buffer": 0,
      "byteLength": 499776,
      "byteOffset": 429584,
      "byteStride": 12,
      "name": "floatBufferViews",
      "target": 34962
    },
    {
      "buffer": 0,
      "byteLength": 333184,
      "byteOffset": 929360,
      "byteStride": 16,
      "name": "floatBufferViews",
      "target": 34962
    }
  ],
  "buffers": [
    {
      "byteLength": 1262544,
      "uri": "sceneDragon.bin"
    }
  ],
  "extensionsRequired": [
    "KHR_materials_pbrSpecularGlossiness"
  ],
  "extensionsUsed": [
    "KHR_materials_pbrSpecularGlossiness"
  ],
  "images": [
    {
      "uri": "texturesDragon/material_diffuse.png"
    },
    {
      "uri": "texturesDragon/material_specularGlossiness.png"
    },
    {
      "uri": "texturesDragon/material_occlusion.png"
    },
    {
      "uri": "texturesDragon/material_normal.png"
    },
    {
      "uri": "texturesDragon/material_emissive.png"
    }
  ],
  "materials": [
    {
      "doubleSided": true,
      "emissiveFactor": [
        1,
        1,
        1
      ],
      "emissiveTexture": {
        "index": 4,
        "texCoord": 0
      },
      "extensions": {
        "KHR_materials_pbrSpecularGlossiness": {
          "diffuseFactor": [
            1,
            1,
            1,
            1
          ],
          "diffuseTexture": {
            "index": 0,
            "texCoord": 0
          },
          "glossinessFactor": 0.84999999999999998,
          "specularFactor": [
            0.5,
            0.5,
            0.5
          ],
          "specularGlossinessTexture": {
            "index": 1,
            "texCoord": 0
          }
        }
      },
      "name": "material",
      "normalTexture": {
        "index": 3,
        "scale": 1,
        "texCoord": 0
      },
      "occlusionTexture": {
        "index": 2,
        "strength": 1,
        "texCoord": 0
      }
    },
    {
      "doubleSided": true,
      "extensions": {
        "KHR_materials_pbrSpecularGlossiness": {
          "diffuseFactor": [
            0.010849055999999999,
            0.012518225399999999,
            0.0045466495000000004,
            1
          ],
          "glossinessFactor": 0.92500000000000004,
          "specularFactor": [
            0.050000000000000003,
            0.050000000000000003,
            0.050000000000000003
          ]
        }
      },
      "name": "lens"
    }
  ],
  "meshes": [
    {
      "primitives": [
        {
          "attributes": {
            "NORMAL": 1,
            "POSITION": 0,
            "TANGENT": 2,
            "TEXCOORD_0": 3
          },
          "indices": 4,
          "material": 0,
          "mode": 4
        }
      ]
    },
    {
      "primitives": [
        {
          "attributes": {
            "NORMAL": 6,
            "POSITION": 5,
            "TANGENT": 7,
            "TEXCOORD_0": 8
          },
          "indices": 9,
          "material": 1,
          "mode": 4
        }
      ]
    }
  ],
  "nodes": [
    {
      "children": [
        1
      ],
      "name": "RootNode (gltf orientation matrix)",
      "rotation": [
        -0.70710678118654746,
        -0,
        -0,
        0.70710678118654757
      ]
    },
    {
      "children": [
        2
      ],
      "name": "RootNode (model correction matrix)"
    },
    {
      "children": [
        3,
        4
      ],
      "name": "awp.obj.cleaner.materialmerger.gles"
    },
    {
      "mesh": 0,
      "name": ""
    },
    {
      "mesh": 1,
      "name": ""
    }
  ],
  "samplers": [
    {
      "magFilter": 9729,
      "minFilter": 9987,
      "wrapS": 10497,
      "wrapT": 10497
    }
  ],
  "scene": 0,
  "scenes": [
    {
      "name": "OSG_Scene",
      "nodes": [
        0
      ]
    }
  ],
  "textures": [
    {
      "sampler": 0,
      "source": 0
    },
    {
      "sampler": 0,
      "source": 1
    },
    {
      "sampler": 0,
      "source": 2
    },
    {
      "sampler": 0,
      "source": 3
    },
    {
      "sampler": 0,
      "source": 4
    }
  ]
}

